<mxfile host="app.diagrams.net" modified="2024-03-26T13:36:47.523Z" agent="Mozilla/5.0 (Windows NT 10.0; Win64; x64) AppleWebKit/537.36 (KHTML, like Gecko) Chrome/123.0.0.0 Safari/537.36" version="24.1.0" etag="LTkaVKVCmvYXBFtT4TmA" type="github">
  <diagram name="Page-1" id="V8nKBJ0eUF0Gf-3YNFPS">
    <mxGraphModel>
      <root>
        <mxCell id="0" />
        <mxCell id="1" parent="0" />
      </root>
    </mxGraphModel>
  </diagram>
</mxfile>
